<?xml version="1.0" standalone="no"?>
<!DOCTYPE svg PUBLIC "-//W3C//DTD SVG 20010904//EN"
 "http://www.w3.org/TR/2001/REC-SVG-20010904/DTD/svg10.dtd">
<svg version="1.0" xmlns="http://www.w3.org/2000/svg"
 width="200.000000pt" height="200.000000pt" viewBox="0 0 200.000000 200.000000"
 preserveAspectRatio="xMidYMid meet">
<metadata>
Created by potrace 1.14, written by Peter Selinger 2001-2017
</metadata>
<g transform="translate(0.000000,200.000000) scale(0.100000,-0.100000)"
fill="#000000" stroke="none">
<path d="M878 1795 c-77 -21 -136 -54 -196 -110 -286 -266 -146 -737 238 -806
178 -32 377 55 472 207 171 272 31 628 -277 709 -70 18 -172 18 -237 0z m251
-24 c212 -66 350 -284 314 -496 -46 -266 -302 -436 -558 -370 -128 34 -239
127 -298 252 -30 64 -32 74 -32 183 0 112 1 117 36 190 57 119 157 206 284
246 61 19 184 17 254 -5z"/>
<path d="M990 1685 c0 -25 5 -45 10 -45 6 0 10 20 10 45 0 25 -4 45 -10 45 -5
0 -10 -20 -10 -45z"/>
<path d="M797 1684 c-7 -7 32 -74 44 -74 5 0 0 18 -11 40 -21 42 -23 44 -33
34z"/>
<path d="M1175 1665 c-10 -17 -23 -35 -27 -42 -5 -6 -5 -14 1 -17 11 -7 54 61
48 78 -2 6 -12 -3 -22 -19z"/>
<path d="M655 1540 c-3 -5 12 -18 34 -30 52 -26 61 -11 10 17 -21 12 -41 17
-44 13z"/>
<path d="M1300 1529 c-43 -26 -45 -28 -37 -35 8 -8 77 34 77 47 0 12 0 12 -40
-12z"/>
<path d="M862 1487 c-23 -23 -42 -47 -42 -52 0 -6 40 -70 89 -144 l89 -133 92
137 92 137 -48 49 -48 49 -91 0 -91 0 -42 -43z m170 -9 l-32 -33 -32 33 -33
32 65 0 65 0 -33 -32z m-87 -8 l29 -30 -57 0 c-31 0 -57 3 -57 7 0 9 42 53 50
53 3 0 19 -13 35 -30z m170 0 l29 -30 -57 0 c-31 0 -57 3 -57 7 0 9 42 53 50
53 3 0 19 -13 35 -30z m-125 -157 l0 -108 -53 80 c-30 44 -62 92 -71 108 l-18
27 71 0 71 0 0 -107z m99 15 c-34 -51 -66 -97 -70 -102 -5 -6 -9 34 -9 92 l0
102 70 0 71 0 -62 -92z"/>
<path d="M605 1350 c-4 -6 12 -10 39 -10 25 0 46 5 46 10 0 6 -18 10 -39 10
-22 0 -43 -4 -46 -10z"/>
<path d="M1300 1340 c0 -5 20 -10 45 -10 25 0 45 5 45 10 0 6 -20 10 -45 10
-25 0 -45 -4 -45 -10z"/>
<path d="M687 1179 c-21 -11 -35 -24 -32 -29 4 -7 50 13 83 36 2 1 0 4 -5 7
-4 3 -25 -4 -46 -14z"/>
<path d="M1260 1192 c0 -5 18 -18 40 -31 48 -27 54 -11 6 18 -36 23 -46 25
-46 13z"/>
<path d="M1147 1083 c-3 -5 7 -26 21 -48 31 -49 41 -32 11 19 -22 38 -25 41
-32 29z"/>
<path d="M811 1045 c-11 -19 -16 -37 -11 -40 5 -3 18 12 30 35 25 49 10 54
-19 5z"/>
<path d="M990 995 c0 -25 5 -45 10 -45 6 0 10 20 10 45 0 25 -4 45 -10 45 -5
0 -10 -20 -10 -45z"/>
<path d="M777 766 c-11 -11 -17 -12 -26 -3 -8 8 -11 -21 -11 -116 0 -78 4
-127 10 -127 6 0 10 36 10 89 0 104 11 141 40 141 15 0 20 -7 20 -25 0 -16 6
-25 15 -25 22 0 19 36 -5 60 -24 24 -34 25 -53 6z"/>
<path d="M1045 766 c-14 -10 -24 -11 -32 -4 -10 8 -13 -16 -13 -116 0 -104 3
-126 15 -126 11 0 15 21 17 106 3 112 13 136 52 121 13 -5 16 -24 16 -117 0
-90 3 -110 15 -110 11 0 15 21 17 106 3 112 13 136 52 121 13 -5 16 -24 16
-117 0 -91 3 -110 15 -110 12 0 15 17 15 98 0 53 -3 107 -7 120 -8 32 -49 47
-78 28 -12 -8 -26 -11 -31 -6 -19 17 -51 20 -69 6z"/>
<path d="M1330 767 c-24 -12 -25 -15 -25 -127 l0 -115 28 -9 c44 -16 81 3 85
42 2 18 -1 32 -7 32 -6 0 -11 -9 -11 -20 0 -27 -34 -44 -61 -30 -16 9 -20 19
-17 53 l3 42 48 3 47 3 0 59 c0 56 -1 58 -31 69 -18 6 -32 11 -33 11 -1 0 -12
-6 -26 -13z m64 -33 c3 -9 6 -29 6 -45 0 -27 -2 -29 -40 -29 -38 0 -40 2 -40
29 0 46 10 61 40 61 16 0 30 -7 34 -16z"/>
<path d="M550 645 c0 -104 2 -125 15 -125 11 0 15 11 15 40 0 39 1 40 33 40
47 0 57 15 57 87 0 72 -11 83 -79 83 l-41 0 0 -125z m88 93 c13 -13 16 -75 6
-102 -4 -10 -18 -16 -35 -16 l-29 0 0 65 c0 61 1 65 23 65 13 0 28 -5 35 -12z"/>
<path d="M900 645 c0 -77 4 -125 10 -125 6 0 10 48 10 125 0 77 -4 125 -10
125 -6 0 -10 -48 -10 -125z"/>
<path d="M374 436 c-17 -13 -19 -27 -19 -121 0 -94 2 -108 19 -121 42 -30 102
-11 108 35 4 33 -18 38 -26 6 -6 -22 -11 -26 -39 -23 l-32 3 0 100 0 100 29 3
c32 4 46 -10 46 -46 0 -15 5 -22 13 -19 17 6 10 69 -10 85 -22 16 -65 15 -89
-2z"/>
<path d="M572 440 c-22 -9 -23 -13 -20 -127 l3 -118 37 -9 c29 -7 42 -6 62 8
25 16 26 20 26 121 0 96 -2 105 -22 119 -25 18 -52 19 -86 6z m73 -125 l0
-100 -32 -3 -33 -3 0 106 0 106 33 -3 32 -3 0 -100z"/>
<path d="M792 434 c-12 -8 -22 -10 -22 -5 0 6 -4 11 -10 11 -6 0 -10 -48 -10
-125 0 -104 2 -125 15 -125 12 0 15 18 15 103 0 109 6 127 47 127 23 0 23 -2
23 -115 0 -96 3 -115 15 -115 12 0 15 20 15 120 0 108 -2 120 -19 130 -27 14
-43 13 -69 -6z"/>
<path d="M1000 435 c-10 -12 -16 -13 -26 -4 -12 10 -14 -9 -14 -115 0 -105 2
-126 15 -126 12 0 15 19 15 109 0 115 2 121 51 121 18 0 19 -8 19 -115 0 -96
3 -115 15 -115 12 0 15 19 15 113 0 98 -3 116 -18 130 -23 21 -56 22 -72 2z"/>
<path d="M1182 434 c-20 -14 -22 -23 -22 -119 0 -96 2 -105 22 -119 12 -9 33
-16 45 -16 28 0 63 33 63 60 0 28 -28 25 -32 -2 -2 -18 -11 -24 -35 -26 l-33
-3 0 50 0 51 50 0 50 0 0 50 c0 78 -52 114 -108 74z m76 -61 l3 -43 -35 0
c-36 0 -36 0 -36 46 0 45 0 45 33 42 30 -3 32 -6 35 -45z"/>
<path d="M1371 431 c-18 -18 -21 -33 -21 -116 0 -82 3 -98 20 -115 39 -39 110
-20 110 31 0 36 -23 36 -28 0 -3 -18 -9 -22 -35 -19 l-32 3 0 100 0 100 32 3
c29 3 32 1 35 -29 4 -45 28 -51 28 -7 0 45 -11 58 -52 64 -28 5 -40 2 -57 -15z"/>
<path d="M1542 324 c3 -101 6 -117 22 -130 24 -17 37 -18 60 -1 21 15 27 78 9
84 -8 3 -13 -4 -13 -19 0 -32 -15 -52 -34 -45 -13 5 -16 24 -16 107 l0 100 30
0 c17 0 30 5 30 10 0 6 -21 10 -46 10 l-46 0 4 -116z"/>
</g>
</svg>
